<?xml version="1.0" encoding="UTF-8"?>
<svg id="Layer_2" data-name="Layer 2" xmlns="http://www.w3.org/2000/svg" viewBox="0 0 894.47 894.47">
  <defs>
    <style>
      .cls-1 {
        fill: #1d2c1e;
      }

      .cls-2 {
        fill: #ffe99a;
      }
    </style>
  </defs>
  <g id="Layer_1-2" data-name="Layer 1">
    <g>
      <circle class="cls-1" cx="447.24" cy="447.24" r="447.24"/>
      <path class="cls-2" d="M693.6,338.73c0,62.22-26.61,120.46-74.94,163.98-43.53,39.2-101.22,62.67-158.28,64.38-2.36,.06-4.67,.1-6.96,.1-39.34,0-69.36-10.19-92.19-22.63,7.88,38.53,21.28,93.35,42.01,171.98,7.58,28.76-9.59,58.21-38.34,65.8-4.6,1.21-9.22,1.79-13.76,1.79-23.86,0-45.66-15.98-52.03-40.14-33.08-125.43-48.35-193.25-52.73-234.08-2.83-26.42-1.39-45.3,4.7-61.21,7.5-19.62,21.63-33.96,42.03-42.64,20.71-8.82,43.55-7.73,64.29,3.07,11.65,6.06,20.89,14.07,29.84,21.82,18.31,15.87,34.13,29.56,69.92,28.49,62.18-1.86,128.75-50.81,128.75-120.71s-57.03-120.69-127.13-120.69c-45.28,0-86.16,22.1-109.37,59.11-9.75,15.56-13.99,31.37-18.11,67.66-3.37,29.55-30.05,50.78-59.59,47.42-22.88-2.61-40.77-19.19-46.12-40.26v-.06s-.93-4.41-.93-4.41v-.05s-22.07-105.86-22.07-105.86c-9.1-44.13,19.29-87.28,63.42-96.37l134.54-27.75c18.95-4.71,38.53-7.12,58.25-7.12,62.36,0,121.08,23.51,165.35,66.21,21.7,20.93,38.77,45.36,50.73,72.61,12.44,28.38,18.75,58.52,18.75,89.57Z"/>
    </g>
  </g>
</svg>