<?xml version="1.0" encoding="UTF-8"?>
<svg id="Layer_2" data-name="Layer 2" xmlns="http://www.w3.org/2000/svg" viewBox="0 0 686.27 938.44">
  <defs>
    <style>
      .cls-1 {
        fill: #231f20;
      }
    </style>
  </defs>
  <g id="Layer_1-2" data-name="Layer 1">
    <path class="cls-1" d="M686.27,318.09c0,86.66-37.06,167.77-104.37,228.39-60.63,54.6-140.98,87.28-220.45,89.67-3.28,.09-6.51,.14-9.7,.14-54.79,0-96.6-14.19-128.4-31.52,10.98,53.66,29.64,130.02,58.51,239.53,10.56,40.05-13.35,81.08-53.4,91.64-6.41,1.69-12.84,2.5-19.17,2.5-33.23,0-63.6-22.25-72.47-55.9-46.07-174.7-67.34-269.16-73.44-326.03-3.94-36.8-1.93-63.09,6.54-85.25,10.44-27.32,30.13-47.3,58.54-59.39,28.85-12.29,60.65-10.77,89.54,4.27,16.22,8.44,29.1,19.6,41.56,30.39,25.5,22.1,47.53,41.17,97.39,39.68,86.6-2.59,179.32-70.77,179.32-168.12s-79.43-168.09-177.07-168.09c-63.06,0-120,30.78-152.33,82.33-13.58,21.67-19.48,43.69-25.23,94.24-4.69,41.16-41.85,70.72-83,66.04-31.87-3.63-56.79-26.73-64.24-56.08l-.02-.08-1.28-6.14v-.07S2.36,182.8,2.36,182.8C-10.31,121.34,29.23,61.24,90.69,48.57L278.07,9.92C304.46,3.36,331.73,0,359.2,0c86.85,0,168.64,32.75,230.3,92.21,30.23,29.15,54,63.18,70.65,101.13,17.33,39.53,26.12,81.5,26.12,124.75Z"/>
  </g>
</svg>